<svg xmlns="http://www.w3.org/2000/svg" viewBox="0 0 1422 800" shape-rendering="crispEdges" fill="none" stroke="#NaNNaNNaN" stroke-linejoin="round" stroke-width="1.5" xmlns:v="https://vecta.io/nano"><path d="M1422 0v200L1066.5 0z"/><path d="M1066.5 200V0H711z"/><path d="M1066.5 200H711l355.5 200z"/><path d="M1422 200v200h-355.5zm-711 0L355.5 0H711z"/><path d="M355.5 0H0v200z"/><path d="M355.5 200v200L0 200z"/><path d="M355.5 400L711 200v200z"/><path d="M711 400v200H355.5zm-355.5 0v100H177.75z"/><path d="M177.75 400v100H0z"/><path d="M0 600l177.75-100H0z"/><path d="M177.75 500v100H355.5z"/><path d="M355.5 600H0v200z"/><path d="M711 800L355.5 600v200zm355.5-200L1422 400v200zM888.75 500l177.75-100H888.75z"/><path d="M888.75 500L711 400h177.75z"/><path d="M888.75 500H711v100zm177.75 100V500L888.75 600z"/><path d="M1066.5 600v200H711z"/><path d="M1422 600l-355.5 200V600z"/></svg>